<svg width="20" height="20" viewBox="0 0 20 20" fill="none" xmlns="http://www.w3.org/2000/svg">
<path d="M9.55837 3.20084C9.67556 3.08379 9.83441 3.01805 10 3.01805C10.1657 3.01805 10.3245 3.08379 10.4417 3.20084L17.6834 10.4425C17.7411 10.5022 17.81 10.5498 17.8863 10.5825C17.9626 10.6152 18.0446 10.6324 18.1276 10.6331C18.2106 10.6338 18.2929 10.6179 18.3697 10.5864C18.4465 10.555 18.5162 10.5085 18.5749 10.4498C18.6335 10.3911 18.6799 10.3213 18.7113 10.2445C18.7427 10.1677 18.7585 10.0854 18.7577 10.0024C18.7569 9.91938 18.7397 9.83738 18.7069 9.76114C18.6741 9.68491 18.6264 9.61596 18.5667 9.55834L11.3259 2.31667C11.1518 2.14256 10.9451 2.00444 10.7176 1.91021C10.4901 1.81599 10.2463 1.76749 10 1.76749C9.7538 1.76749 9.50998 1.81599 9.2825 1.91021C9.05501 2.00444 8.84831 2.14256 8.6742 2.31667L1.43253 9.55834C1.37287 9.61602 1.32529 9.68501 1.29257 9.76127C1.25985 9.83754 1.24265 9.91956 1.24196 10.0026C1.24128 10.0855 1.25714 10.1678 1.2886 10.2446C1.32006 10.3214 1.3665 10.3912 1.42521 10.4498C1.48392 10.5085 1.55372 10.5549 1.63055 10.5863C1.70737 10.6176 1.78968 10.6334 1.87267 10.6327C1.95565 10.6319 2.03766 10.6146 2.11389 10.5818C2.19013 10.549 2.25907 10.5014 2.3167 10.4417L9.55837 3.20084Z" fill="white"/>
<path d="M10 4.52667L16.7992 11.3258C16.8242 11.3508 16.8492 11.3742 16.875 11.3975V16.5625C16.875 17.425 16.175 18.125 15.3125 18.125H12.5C12.3342 18.125 12.1753 18.0592 12.0581 17.9419C11.9408 17.8247 11.875 17.6658 11.875 17.5V13.75C11.875 13.5842 11.8092 13.4253 11.6919 13.3081C11.5747 13.1909 11.4158 13.125 11.25 13.125H8.75C8.58424 13.125 8.42527 13.1909 8.30806 13.3081C8.19085 13.4253 8.125 13.5842 8.125 13.75V17.5C8.125 17.6658 8.05915 17.8247 7.94194 17.9419C7.82473 18.0592 7.66576 18.125 7.5 18.125H4.6875C4.2731 18.125 3.87567 17.9604 3.58265 17.6674C3.28962 17.3743 3.125 16.9769 3.125 16.5625V11.3975C3.15093 11.3743 3.17621 11.3504 3.20083 11.3258L10 4.52667Z" fill="white"/>
</svg>
