<svg width="20" height="20" viewBox="0 0 20 20" fill="none" xmlns="http://www.w3.org/2000/svg">
<path fill-rule="evenodd" clip-rule="evenodd" d="M10.0001 5.625C9.99988 4.94166 10.1598 4.26779 10.4669 3.65737C10.7741 3.04696 11.2199 2.51698 11.7688 2.1099C12.3176 1.70282 12.9542 1.42997 13.6275 1.3132C14.3007 1.19644 14.992 1.239 15.6459 1.4375C15.7492 1.4688 15.8427 1.52635 15.9172 1.60454C15.9917 1.68272 16.0446 1.77887 16.0709 1.88361C16.0972 1.98835 16.0959 2.09811 16.0671 2.20219C16.0383 2.30627 15.9831 2.40112 15.9067 2.4775L13.1401 5.24333C13.1926 5.63916 13.3701 6.02166 13.6742 6.32583C13.9784 6.63 14.3609 6.8075 14.7576 6.85916L17.5226 4.09333C17.5989 4.01699 17.6938 3.96174 17.7979 3.93297C17.9019 3.90419 18.0117 3.90287 18.1164 3.92914C18.2212 3.95541 18.3173 4.00837 18.3955 4.08286C18.4737 4.15734 18.5312 4.25082 18.5626 4.35416C18.7702 5.03821 18.8071 5.76272 18.67 6.46433C18.5329 7.16593 18.2259 7.82324 17.776 8.37876C17.326 8.93428 16.7468 9.37108 16.089 9.65095C15.4312 9.93082 14.7148 10.0452 14.0026 9.98416C13.1542 9.9125 12.4442 10.0675 12.0784 10.5125L6.12005 17.75C5.87609 18.0448 5.57325 18.2854 5.23092 18.4564C4.8886 18.6274 4.51434 18.7251 4.1321 18.7431C3.74987 18.7611 3.36808 18.6991 3.0112 18.561C2.65431 18.423 2.33018 18.2119 2.05957 17.9414C1.78896 17.6708 1.57783 17.3467 1.4397 16.9899C1.30157 16.633 1.23948 16.2512 1.25741 15.869C1.27534 15.4868 1.3729 15.1125 1.54383 14.7701C1.71476 14.4278 1.9553 14.1249 2.25005 13.8808L9.48672 7.92166C9.93089 7.555 10.0867 6.84583 10.0151 5.9975C10.0049 5.87359 9.99985 5.74932 10.0001 5.625ZM3.43089 15.9375C3.43089 15.7717 3.49673 15.6128 3.61394 15.4956C3.73115 15.3783 3.89013 15.3125 4.05589 15.3125H4.06255C4.22831 15.3125 4.38728 15.3783 4.50449 15.4956C4.6217 15.6128 4.68755 15.7717 4.68755 15.9375V15.9442C4.68755 16.1099 4.6217 16.2689 4.50449 16.3861C4.38728 16.5033 4.22831 16.5692 4.06255 16.5692H4.05589C3.89013 16.5692 3.73115 16.5033 3.61394 16.3861C3.49673 16.2689 3.43089 16.1099 3.43089 15.9442V15.9375Z" fill="white" fill-opacity="0.5"/>
<path d="M8.39668 7.2L6.56252 5.36666V4.06166C6.56251 3.95376 6.53457 3.8477 6.48141 3.7538C6.42826 3.6599 6.3517 3.58136 6.25918 3.52583L3.13418 1.65083C3.01466 1.57918 2.87462 1.54953 2.73632 1.56659C2.59801 1.58365 2.46938 1.64645 2.37085 1.745L1.74585 2.37C1.6473 2.46852 1.58451 2.59716 1.56745 2.73546C1.55039 2.87377 1.58003 3.01381 1.65168 3.13333L3.52668 6.25833C3.58222 6.35084 3.66075 6.4274 3.75465 6.48056C3.84855 6.53372 3.95462 6.56166 4.06252 6.56166H5.36585L7.08418 8.28L8.39668 7.19916V7.2Z" fill="white" fill-opacity="0.5"/>
<path fill-rule="evenodd" clip-rule="evenodd" d="M10.4634 14.4408L13.9492 17.9258C14.2104 18.187 14.5204 18.3942 14.8617 18.5355C15.2029 18.6769 15.5686 18.7496 15.938 18.7496C16.3073 18.7496 16.673 18.6769 17.0143 18.5355C17.3555 18.3942 17.6655 18.187 17.9267 17.9258C18.1879 17.6647 18.395 17.3546 18.5364 17.0134C18.6777 16.6722 18.7505 16.3064 18.7505 15.9371C18.7505 15.5677 18.6777 15.202 18.5364 14.8608C18.395 14.5196 18.1879 14.2095 17.9267 13.9483L15.1717 11.1942C14.7494 11.254 14.3217 11.2661 13.8967 11.23C13.5684 11.2017 13.3284 11.225 13.1742 11.265C13.1254 11.2753 13.0785 11.293 13.035 11.3175L10.4634 14.4408ZM13.3084 13.3075C13.4256 13.1905 13.5844 13.1247 13.75 13.1247C13.9157 13.1247 14.0745 13.1905 14.1917 13.3075L15.7542 14.8708C15.8156 14.9281 15.8649 14.9971 15.899 15.0737C15.9332 15.1504 15.9516 15.2331 15.953 15.3171C15.9545 15.401 15.9391 15.4843 15.9076 15.5622C15.8762 15.64 15.8294 15.7107 15.7701 15.77C15.7107 15.8294 15.64 15.8762 15.5622 15.9076C15.4844 15.939 15.401 15.9545 15.3171 15.953C15.2332 15.9515 15.1504 15.9331 15.0738 15.899C14.9971 15.8648 14.9281 15.8156 14.8709 15.7542L13.3084 14.1917C13.1913 14.0745 13.1256 13.9156 13.1256 13.75C13.1256 13.5844 13.1913 13.4255 13.3084 13.3083V13.3075Z" fill="white" fill-opacity="0.5"/>
</svg>
