<svg width="20" height="20" viewBox="0 0 20 20" fill="none" xmlns="http://www.w3.org/2000/svg">
<path fill-rule="evenodd" clip-rule="evenodd" d="M16.25 17.5C16.913 17.5 17.5489 17.2366 18.0178 16.7678C18.4866 16.2989 18.75 15.663 18.75 15V7.5C18.75 6.83696 18.4866 6.20107 18.0178 5.73223C17.5489 5.26339 16.913 5 16.25 5H11.7675C11.6018 4.99985 11.4429 4.93391 11.3258 4.81667L9.55833 3.05C9.38429 2.87574 9.17762 2.73748 8.95013 2.64311C8.72264 2.54874 8.47879 2.50011 8.2325 2.5H3.75C3.08696 2.5 2.45107 2.76339 1.98223 3.23223C1.51339 3.70107 1.25 4.33696 1.25 5V15C1.25 15.663 1.51339 16.2989 1.98223 16.7678C2.45107 17.2366 3.08696 17.5 3.75 17.5H16.25ZM10.625 8.75C10.625 8.58424 10.5592 8.42527 10.4419 8.30806C10.3247 8.19085 10.1658 8.125 10 8.125C9.83424 8.125 9.67527 8.19085 9.55806 8.30806C9.44085 8.42527 9.375 8.58424 9.375 8.75V10.625H7.5C7.33424 10.625 7.17527 10.6908 7.05806 10.8081C6.94085 10.9253 6.875 11.0842 6.875 11.25C6.875 11.4158 6.94085 11.5747 7.05806 11.6919C7.17527 11.8092 7.33424 11.875 7.5 11.875H9.375V13.75C9.375 13.9158 9.44085 14.0747 9.55806 14.1919C9.67527 14.3092 9.83424 14.375 10 14.375C10.1658 14.375 10.3247 14.3092 10.4419 14.1919C10.5592 14.0747 10.625 13.9158 10.625 13.75V11.875H12.5C12.6658 11.875 12.8247 11.8092 12.9419 11.6919C13.0592 11.5747 13.125 11.4158 13.125 11.25C13.125 11.0842 13.0592 10.9253 12.9419 10.8081C12.8247 10.6908 12.6658 10.625 12.5 10.625H10.625V8.75Z" fill="white" />
</svg>
