<svg width="32" height="32" viewBox="0 0 32 32" fill="none" xmlns="http://www.w3.org/2000/svg">
<rect width="32" height="32" rx="16" fill="black" fill-opacity="0.06"/>
<path d="M15.9999 17.6667C18.3011 17.6667 20.1666 15.4281 20.1666 12.6667C20.1666 9.90523 18.3011 7.66666 15.9999 7.66666C13.6987 7.66666 11.8333 9.90523 11.8333 12.6667C11.8333 15.4281 13.6987 17.6667 15.9999 17.6667Z" fill="black"/>
<path d="M24.1666 21.9167C23.4166 20.4167 22 19.1667 20.1666 18.4167C19.6666 18.25 19.0833 18.25 18.6666 18.5C17.8333 19 17 19.25 16 19.25C15 19.25 14.1666 19 13.3333 18.5C12.9166 18.3333 12.3333 18.25 11.8333 18.5C9.99998 19.25 8.58331 20.5 7.83331 22C7.24998 23.0833 8.16664 24.3333 9.41664 24.3333H22.5833C23.8333 24.3333 24.75 23.0833 24.1666 21.9167Z" fill="black"/>
</svg>
