<svg width="20" height="20" viewBox="0 0 20 20" fill="none" xmlns="http://www.w3.org/2000/svg">
<path d="M2.8125 3.75C1.94917 3.75 1.25 4.45 1.25 5.3125V11.25H11.25V5.3125C11.25 4.44917 10.55 3.75 9.6875 3.75H2.8125ZM11.25 12.5H1.25V14.6875C1.25 15.55 1.95 16.25 2.8125 16.25H3.125C3.125 15.587 3.38839 14.9511 3.85723 14.4822C4.32607 14.0134 4.96196 13.75 5.625 13.75C6.28804 13.75 6.92393 14.0134 7.39277 14.4822C7.86161 14.9511 8.125 15.587 8.125 16.25H10.625C10.7908 16.25 10.9497 16.1842 11.0669 16.0669C11.1842 15.9497 11.25 15.7908 11.25 15.625V12.5Z" fill="white" fill-opacity="0.5"/>
<path d="M6.875 16.25C6.875 15.9185 6.7433 15.6005 6.50888 15.3661C6.27446 15.1317 5.95652 15 5.625 15C5.29348 15 4.97554 15.1317 4.74112 15.3661C4.5067 15.6005 4.375 15.9185 4.375 16.25C4.375 16.5815 4.5067 16.8995 4.74112 17.1339C4.97554 17.3683 5.29348 17.5 5.625 17.5C5.95652 17.5 6.27446 17.3683 6.50888 17.1339C6.7433 16.8995 6.875 16.5815 6.875 16.25ZM13.125 5.625C12.9592 5.625 12.8003 5.69085 12.6831 5.80806C12.5658 5.92527 12.5 6.08424 12.5 6.25V15.625C12.5 15.6975 12.5125 15.7667 12.535 15.8317C12.6389 15.216 12.9694 14.6614 13.4615 14.2771C13.9536 13.8928 14.5718 13.7066 15.1943 13.7551C15.8168 13.8035 16.3986 14.0832 16.8253 14.5391C17.252 14.9949 17.4927 15.594 17.5 16.2183C18.2108 16.0725 18.7683 15.4392 18.72 14.6492C18.5336 11.5978 17.4518 8.66909 15.61 6.22917C15.4665 6.0405 15.2812 5.88773 15.0686 5.78288C14.856 5.67804 14.622 5.62399 14.385 5.625H13.125Z" fill="white" fill-opacity="0.5"/>
<path d="M16.25 16.25C16.25 15.9185 16.1183 15.6005 15.8839 15.3661C15.6495 15.1317 15.3315 15 15 15C14.6685 15 14.3505 15.1317 14.1161 15.3661C13.8817 15.6005 13.75 15.9185 13.75 16.25C13.75 16.5815 13.8817 16.8995 14.1161 17.1339C14.3505 17.3683 14.6685 17.5 15 17.5C15.3315 17.5 15.6495 17.3683 15.8839 17.1339C16.1183 16.8995 16.25 16.5815 16.25 16.25Z" fill="white" fill-opacity="0.5"/>
</svg>
